<mxfile host="www.draw.io" modified="2019-10-30T07:11:11.513Z" agent="Mozilla/5.0 (Windows NT 6.1) AppleWebKit/537.36 (KHTML, like Gecko) Chrome/77.0.3865.120 Safari/537.36" etag="2bi81nSRMqDNKFLL8F5A" version="12.1.8" type="github" pages="6">
  <diagram id="t9SCPp3qZgQ9LCUCYkns" name="requirement_function">
    <mxGraphModel dx="854" dy="436" grid="1" gridSize="10" guides="1" tooltips="1" connect="1" arrows="1" fold="1" page="1" pageScale="1" pageWidth="827" pageHeight="1169" math="0" shadow="0">
      <root>
        <mxCell id="0"/>
        <mxCell id="1" parent="0"/>
        <mxCell id="poNCgdZjSfnXngBSehZM-1" value="TV" style="html=1;align=center;verticalAlign=top;fontStyle=1;fontSize=20;" vertex="1" parent="1">
          <mxGeometry x="170" y="80" width="590" height="480" as="geometry"/>
        </mxCell>
        <mxCell id="poNCgdZjSfnXngBSehZM-2" value="사용자" style="shape=umlActor;verticalLabelPosition=bottom;labelBackgroundColor=#ffffff;verticalAlign=top;html=1;align=left;" vertex="1" parent="1">
          <mxGeometry x="70" y="300" width="30" height="60" as="geometry"/>
        </mxCell>
        <mxCell id="poNCgdZjSfnXngBSehZM-5" value="전원관리" style="ellipse;whiteSpace=wrap;html=1;align=center;" vertex="1" parent="1">
          <mxGeometry x="210" y="170" width="110" height="40" as="geometry"/>
        </mxCell>
        <mxCell id="poNCgdZjSfnXngBSehZM-6" value="전원을 켠다" style="ellipse;whiteSpace=wrap;html=1;align=center;" vertex="1" parent="1">
          <mxGeometry x="410" y="130" width="110" height="40" as="geometry"/>
        </mxCell>
        <mxCell id="poNCgdZjSfnXngBSehZM-7" value="전원을 끈다" style="ellipse;whiteSpace=wrap;html=1;align=center;" vertex="1" parent="1">
          <mxGeometry x="410" y="200" width="110" height="40" as="geometry"/>
        </mxCell>
        <mxCell id="poNCgdZjSfnXngBSehZM-8" value="&amp;lt;&amp;lt;include&amp;gt;&amp;gt;" style="endArrow=open;endSize=12;dashed=1;html=1;entryX=0;entryY=0.5;entryDx=0;entryDy=0;exitX=0.982;exitY=0.35;exitDx=0;exitDy=0;exitPerimeter=0;" edge="1" parent="1" source="poNCgdZjSfnXngBSehZM-5" target="poNCgdZjSfnXngBSehZM-6">
          <mxGeometry width="160" relative="1" as="geometry">
            <mxPoint x="350" y="190" as="sourcePoint"/>
            <mxPoint x="220" y="440" as="targetPoint"/>
          </mxGeometry>
        </mxCell>
        <mxCell id="poNCgdZjSfnXngBSehZM-9" value="&amp;lt;&amp;lt;extend&amp;gt;&amp;gt;" style="endArrow=open;endSize=12;dashed=1;html=1;exitX=0;exitY=0.5;exitDx=0;exitDy=0;entryX=0.955;entryY=0.7;entryDx=0;entryDy=0;entryPerimeter=0;" edge="1" parent="1" source="poNCgdZjSfnXngBSehZM-7" target="poNCgdZjSfnXngBSehZM-5">
          <mxGeometry width="160" relative="1" as="geometry">
            <mxPoint x="360" y="200" as="sourcePoint"/>
            <mxPoint x="420" y="160" as="targetPoint"/>
          </mxGeometry>
        </mxCell>
        <mxCell id="poNCgdZjSfnXngBSehZM-10" value="채널관리" style="ellipse;whiteSpace=wrap;html=1;align=center;" vertex="1" parent="1">
          <mxGeometry x="210" y="290" width="110" height="40" as="geometry"/>
        </mxCell>
        <mxCell id="poNCgdZjSfnXngBSehZM-11" value="음질/화질조정" style="ellipse;whiteSpace=wrap;html=1;align=center;" vertex="1" parent="1">
          <mxGeometry x="210" y="450" width="110" height="40" as="geometry"/>
        </mxCell>
        <mxCell id="poNCgdZjSfnXngBSehZM-12" value="채널을 변경한다" style="ellipse;whiteSpace=wrap;html=1;align=center;" vertex="1" parent="1">
          <mxGeometry x="410" y="255" width="110" height="40" as="geometry"/>
        </mxCell>
        <mxCell id="poNCgdZjSfnXngBSehZM-13" value="채널을 검색한다" style="ellipse;whiteSpace=wrap;html=1;align=center;" vertex="1" parent="1">
          <mxGeometry x="410" y="310" width="110" height="40" as="geometry"/>
        </mxCell>
        <mxCell id="poNCgdZjSfnXngBSehZM-14" value="채널 목록을 보인다" style="ellipse;whiteSpace=wrap;html=1;align=center;" vertex="1" parent="1">
          <mxGeometry x="410" y="360" width="110" height="40" as="geometry"/>
        </mxCell>
        <mxCell id="poNCgdZjSfnXngBSehZM-15" value="&amp;lt;&amp;lt;include&amp;gt;&amp;gt;" style="endArrow=open;endSize=12;dashed=1;html=1;exitX=1;exitY=0.5;exitDx=0;exitDy=0;entryX=0;entryY=0.5;entryDx=0;entryDy=0;" edge="1" parent="1" source="poNCgdZjSfnXngBSehZM-10" target="poNCgdZjSfnXngBSehZM-12">
          <mxGeometry width="160" relative="1" as="geometry">
            <mxPoint x="350" y="200" as="sourcePoint"/>
            <mxPoint x="420" y="160" as="targetPoint"/>
          </mxGeometry>
        </mxCell>
        <mxCell id="poNCgdZjSfnXngBSehZM-16" value="&amp;lt;&amp;lt;extend&amp;gt;&amp;gt;" style="endArrow=open;endSize=12;dashed=1;html=1;exitX=0;exitY=0.5;exitDx=0;exitDy=0;entryX=0.936;entryY=0.725;entryDx=0;entryDy=0;entryPerimeter=0;" edge="1" parent="1" source="poNCgdZjSfnXngBSehZM-13" target="poNCgdZjSfnXngBSehZM-10">
          <mxGeometry width="160" relative="1" as="geometry">
            <mxPoint x="420" y="230" as="sourcePoint"/>
            <mxPoint x="345.04999999999995" y="208" as="targetPoint"/>
          </mxGeometry>
        </mxCell>
        <mxCell id="poNCgdZjSfnXngBSehZM-17" value="&amp;lt;&amp;lt;extend&amp;gt;&amp;gt;" style="endArrow=open;endSize=12;dashed=1;html=1;exitX=0;exitY=0.5;exitDx=0;exitDy=0;entryX=1;entryY=1;entryDx=0;entryDy=0;" edge="1" parent="1" source="poNCgdZjSfnXngBSehZM-14" target="poNCgdZjSfnXngBSehZM-10">
          <mxGeometry width="160" relative="1" as="geometry">
            <mxPoint x="420" y="340" as="sourcePoint"/>
            <mxPoint x="342.96000000000004" y="299" as="targetPoint"/>
          </mxGeometry>
        </mxCell>
        <mxCell id="poNCgdZjSfnXngBSehZM-18" value="음질을 조정한다" style="ellipse;whiteSpace=wrap;html=1;align=center;" vertex="1" parent="1">
          <mxGeometry x="410" y="425" width="110" height="40" as="geometry"/>
        </mxCell>
        <mxCell id="poNCgdZjSfnXngBSehZM-19" value="화질을 조정한다" style="ellipse;whiteSpace=wrap;html=1;align=center;" vertex="1" parent="1">
          <mxGeometry x="410" y="475" width="110" height="40" as="geometry"/>
        </mxCell>
        <mxCell id="poNCgdZjSfnXngBSehZM-20" value="&amp;lt;&amp;lt;extend&amp;gt;&amp;gt;" style="endArrow=open;endSize=12;dashed=1;html=1;exitX=0;exitY=0.5;exitDx=0;exitDy=0;entryX=0.955;entryY=0.325;entryDx=0;entryDy=0;entryPerimeter=0;" edge="1" parent="1" source="poNCgdZjSfnXngBSehZM-18" target="poNCgdZjSfnXngBSehZM-11">
          <mxGeometry width="160" relative="1" as="geometry">
            <mxPoint x="420" y="390" as="sourcePoint"/>
            <mxPoint x="333.8908729652601" y="304.14213562373095" as="targetPoint"/>
          </mxGeometry>
        </mxCell>
        <mxCell id="poNCgdZjSfnXngBSehZM-21" value="&amp;lt;&amp;lt;extend&amp;gt;&amp;gt;" style="endArrow=open;endSize=12;dashed=1;html=1;exitX=0;exitY=0.5;exitDx=0;exitDy=0;entryX=0.982;entryY=0.7;entryDx=0;entryDy=0;entryPerimeter=0;" edge="1" parent="1" source="poNCgdZjSfnXngBSehZM-19" target="poNCgdZjSfnXngBSehZM-11">
          <mxGeometry width="160" relative="1" as="geometry">
            <mxPoint x="420" y="455" as="sourcePoint"/>
            <mxPoint x="345.04999999999995" y="473" as="targetPoint"/>
          </mxGeometry>
        </mxCell>
        <mxCell id="poNCgdZjSfnXngBSehZM-22" value="주파수 테이블 단위로 검색한다." style="ellipse;whiteSpace=wrap;html=1;align=center;" vertex="1" parent="1">
          <mxGeometry x="590" y="270" width="120" height="40" as="geometry"/>
        </mxCell>
        <mxCell id="poNCgdZjSfnXngBSehZM-23" value="1M 단위로 검색한다" style="ellipse;whiteSpace=wrap;html=1;align=center;" vertex="1" parent="1">
          <mxGeometry x="590" y="335" width="120" height="40" as="geometry"/>
        </mxCell>
        <mxCell id="poNCgdZjSfnXngBSehZM-26" value="채널을 편집한다" style="ellipse;whiteSpace=wrap;html=1;align=center;" vertex="1" parent="1">
          <mxGeometry x="590" y="400" width="120" height="40" as="geometry"/>
        </mxCell>
        <mxCell id="poNCgdZjSfnXngBSehZM-27" value="&amp;lt;&amp;lt;extend&amp;gt;&amp;gt;" style="endArrow=open;endSize=12;dashed=1;html=1;exitX=0;exitY=0.5;exitDx=0;exitDy=0;entryX=1;entryY=0.5;entryDx=0;entryDy=0;" edge="1" parent="1" source="poNCgdZjSfnXngBSehZM-26" target="poNCgdZjSfnXngBSehZM-14">
          <mxGeometry width="160" relative="1" as="geometry">
            <mxPoint x="420" y="390" as="sourcePoint"/>
            <mxPoint x="333.8908729652601" y="304.14213562373095" as="targetPoint"/>
          </mxGeometry>
        </mxCell>
        <mxCell id="poNCgdZjSfnXngBSehZM-28" value="&amp;lt;&amp;lt;extend&amp;gt;&amp;gt;" style="endArrow=open;endSize=12;dashed=1;html=1;exitX=0;exitY=0.5;exitDx=0;exitDy=0;entryX=0.982;entryY=0.7;entryDx=0;entryDy=0;entryPerimeter=0;" edge="1" parent="1" source="poNCgdZjSfnXngBSehZM-23" target="poNCgdZjSfnXngBSehZM-13">
          <mxGeometry width="160" relative="1" as="geometry">
            <mxPoint x="590" y="440" as="sourcePoint"/>
            <mxPoint x="530" y="390" as="targetPoint"/>
          </mxGeometry>
        </mxCell>
        <mxCell id="poNCgdZjSfnXngBSehZM-29" value="&amp;lt;&amp;lt;extend&amp;gt;&amp;gt;" style="endArrow=open;endSize=12;dashed=1;html=1;exitX=0;exitY=0.5;exitDx=0;exitDy=0;entryX=0.927;entryY=0.275;entryDx=0;entryDy=0;entryPerimeter=0;" edge="1" parent="1" source="poNCgdZjSfnXngBSehZM-22" target="poNCgdZjSfnXngBSehZM-13">
          <mxGeometry width="160" relative="1" as="geometry">
            <mxPoint x="590" y="380" as="sourcePoint"/>
            <mxPoint x="514.7453021431231" y="353.8244529193471" as="targetPoint"/>
          </mxGeometry>
        </mxCell>
        <mxCell id="poNCgdZjSfnXngBSehZM-41" value="" style="endArrow=none;html=1;entryX=0;entryY=0.5;entryDx=0;entryDy=0;" edge="1" parent="1" target="poNCgdZjSfnXngBSehZM-5">
          <mxGeometry width="50" height="50" relative="1" as="geometry">
            <mxPoint x="120" y="310" as="sourcePoint"/>
            <mxPoint x="120" y="580" as="targetPoint"/>
          </mxGeometry>
        </mxCell>
        <mxCell id="poNCgdZjSfnXngBSehZM-42" value="" style="endArrow=none;html=1;entryX=0;entryY=0.5;entryDx=0;entryDy=0;" edge="1" parent="1" target="poNCgdZjSfnXngBSehZM-10">
          <mxGeometry width="50" height="50" relative="1" as="geometry">
            <mxPoint x="120" y="330" as="sourcePoint"/>
            <mxPoint x="220" y="200" as="targetPoint"/>
          </mxGeometry>
        </mxCell>
        <mxCell id="poNCgdZjSfnXngBSehZM-43" value="" style="endArrow=none;html=1;entryX=0;entryY=0.5;entryDx=0;entryDy=0;" edge="1" parent="1" target="poNCgdZjSfnXngBSehZM-11">
          <mxGeometry width="50" height="50" relative="1" as="geometry">
            <mxPoint x="120" y="350" as="sourcePoint"/>
            <mxPoint x="220" y="320" as="targetPoint"/>
          </mxGeometry>
        </mxCell>
      </root>
    </mxGraphModel>
  </diagram>
  <diagram id="19bWmVG4d011nCwHnENF" name="requirement_non-function">
    <mxGraphModel dx="854" dy="1605" grid="1" gridSize="10" guides="1" tooltips="1" connect="1" arrows="1" fold="1" page="1" pageScale="1" pageWidth="827" pageHeight="1169" math="0" shadow="0">
      <root>
        <mxCell id="q5XlR-PtI9cxI1lQ9Abi-0"/>
        <mxCell id="q5XlR-PtI9cxI1lQ9Abi-1" parent="q5XlR-PtI9cxI1lQ9Abi-0"/>
        <mxCell id="1ExetHb4OD4g6JI5gb6c-14" value="&lt;span style=&quot;white-space: normal&quot;&gt;TV 시청 중에 사용자 리모콘의 UP 채널 버튼을 누르면&lt;/span&gt;&lt;br style=&quot;white-space: normal&quot;&gt;&lt;span style=&quot;white-space: normal&quot;&gt;TV는 1초 이내에 UP채널을 보여줘야 한다. (중, 상)&lt;/span&gt;" style="shape=note;whiteSpace=wrap;html=1;size=14;verticalAlign=top;align=left;spacingTop=-6;fontSize=12;fillColor=#ffcc99;strokeColor=#36393d;" vertex="1" parent="q5XlR-PtI9cxI1lQ9Abi-1">
          <mxGeometry x="40" y="240" width="390" height="60" as="geometry"/>
        </mxCell>
        <mxCell id="1ExetHb4OD4g6JI5gb6c-15" value="TV가 꺼진 상태에서 사용자가 리모콘의 전원 버튼을 누를때,&lt;br&gt;TV는 3초 이내에 최종 저장된 채널을 보여줘야 한다. (상, 상)" style="shape=note;whiteSpace=wrap;html=1;size=14;verticalAlign=top;align=left;spacingTop=-6;fontSize=12;fillColor=#ffcc99;strokeColor=#36393d;" vertex="1" parent="q5XlR-PtI9cxI1lQ9Abi-1">
          <mxGeometry x="40" y="60" width="392" height="60" as="geometry"/>
        </mxCell>
        <mxCell id="1ExetHb4OD4g6JI5gb6c-16" value="상품 기획팀에 이집트에 TV를 출시하고자 할때,&lt;br&gt;개발팀은 1개의 컴포너트만 수정하여 이집트 주파수 테이블로&lt;br&gt;변경할 수 있어야 한다. (중, 중)" style="shape=note;whiteSpace=wrap;html=1;size=14;verticalAlign=top;align=left;spacingTop=-6;fontSize=12;fillColor=#ffff88;strokeColor=#36393d;" vertex="1" parent="q5XlR-PtI9cxI1lQ9Abi-1">
          <mxGeometry x="41" y="330" width="390" height="60" as="geometry"/>
        </mxCell>
        <mxCell id="1ExetHb4OD4g6JI5gb6c-17" value="TV가 고장나서 AS 기사를 불렀을때,&lt;br&gt;AS 기사는 10분 이내에 TV의 오류원인을 알아내고,&lt;br&gt;TV를 정상 작동 시킬수 있어야 한다. (상, 상)" style="shape=note;whiteSpace=wrap;html=1;size=14;verticalAlign=top;align=left;spacingTop=-6;fontSize=12;fillColor=#cce5ff;strokeColor=#36393d;" vertex="1" parent="q5XlR-PtI9cxI1lQ9Abi-1">
          <mxGeometry x="40" y="150" width="392" height="60" as="geometry"/>
        </mxCell>
        <mxCell id="1ExetHb4OD4g6JI5gb6c-18" value="UX팀이 사용자 인터페이스의 폰트 색상을 변경 요청을하면,&lt;br&gt;개발팀은 변경을 적용한 TV 소프트웨어를&lt;br&gt;1주일 안에&amp;nbsp;릴리즈 해야한다. (중, 중)" style="shape=note;whiteSpace=wrap;html=1;size=14;verticalAlign=top;align=left;spacingTop=-6;fontSize=12;fillColor=#ffff88;strokeColor=#36393d;" vertex="1" parent="q5XlR-PtI9cxI1lQ9Abi-1">
          <mxGeometry x="490" y="340" width="392" height="60" as="geometry"/>
        </mxCell>
        <mxCell id="1ExetHb4OD4g6JI5gb6c-19" value="하드웨어팀이 TV 하드웨어를 변경하면,&lt;br&gt;개발팀은 변경된 하드웨어에 TV 소프트웨어를&lt;br&gt;1주일 안에 릴리즈 해야한다. (중, 상)" style="shape=note;whiteSpace=wrap;html=1;size=14;verticalAlign=top;align=left;spacingTop=-6;fontSize=12;fillColor=#ffff88;strokeColor=#36393d;" vertex="1" parent="q5XlR-PtI9cxI1lQ9Abi-1">
          <mxGeometry x="490" y="60" width="392" height="60" as="geometry"/>
        </mxCell>
        <mxCell id="1ExetHb4OD4g6JI5gb6c-20" value="상품 기획에서 시장에 맞는 제품 개발을 요구하면,&lt;br&gt;개발팀은 요구 사항을 적용한 TV 제품을&lt;br&gt;2개월 안에 릴리즈 한다. (중, 상)" style="shape=note;whiteSpace=wrap;html=1;size=14;verticalAlign=top;align=left;spacingTop=-6;fontSize=12;fillColor=#ffff88;strokeColor=#36393d;" vertex="1" parent="q5XlR-PtI9cxI1lQ9Abi-1">
          <mxGeometry x="490" y="130" width="392" height="60" as="geometry"/>
        </mxCell>
        <mxCell id="1ExetHb4OD4g6JI5gb6c-22" value="사용자가 UP버튼을 0.5초 이상 누르고 있으면,&lt;br&gt;시스템은 0.2초 주기로 연속적으로 UP 채널로 채널을 변경하며,&lt;br&gt;사용자가 UP 버튼을 떼는 순간 채널변경을 멈춰야 한다. (상, 상)" style="shape=note;whiteSpace=wrap;html=1;size=14;verticalAlign=top;align=left;spacingTop=-6;fontSize=12;fillColor=#ffcc99;strokeColor=#36393d;" vertex="1" parent="q5XlR-PtI9cxI1lQ9Abi-1">
          <mxGeometry x="490" y="-10" width="392" height="60" as="geometry"/>
        </mxCell>
        <mxCell id="1ExetHb4OD4g6JI5gb6c-23" value="하드웨어 팀이 신규 기능을 탑재된 하드웨어로 변경하면,&lt;br&gt;개발팀은 해당 기능에 따른 사용자 인터페이스 변경을&lt;br&gt;1개월 이내에 반영하여 릴리즈 한다. (중, 중)" style="shape=note;whiteSpace=wrap;html=1;size=14;verticalAlign=top;align=left;spacingTop=-6;fontSize=12;fillColor=#ffff88;strokeColor=#36393d;" vertex="1" parent="q5XlR-PtI9cxI1lQ9Abi-1">
          <mxGeometry x="490" y="410" width="392" height="60" as="geometry"/>
        </mxCell>
        <mxCell id="1ExetHb4OD4g6JI5gb6c-24" value="사용자가 TV를 시청하는 도중, 채널 변경이나 음량조절시&lt;br&gt;3번 이내의 리모컨 조작으로 수행이 되어야 한다. (상, 중)" style="shape=note;whiteSpace=wrap;html=1;size=14;verticalAlign=top;align=left;spacingTop=-6;fontSize=12;fillColor=#cdeb8b;strokeColor=#36393d;" vertex="1" parent="q5XlR-PtI9cxI1lQ9Abi-1">
          <mxGeometry x="490" y="270" width="392" height="60" as="geometry"/>
        </mxCell>
        <mxCell id="1ExetHb4OD4g6JI5gb6c-25" value="상품기획이 PIP 기능의 추가를 요청하면,&lt;br&gt;개발팀은 PIP 기능을 탑재한 TV 제품을&lt;br&gt;1개월 이내에 릴리즈 한다. (중, 상)" style="shape=note;whiteSpace=wrap;html=1;size=14;verticalAlign=top;align=left;spacingTop=-6;fontSize=12;fillColor=#ffff88;strokeColor=#36393d;" vertex="1" parent="q5XlR-PtI9cxI1lQ9Abi-1">
          <mxGeometry x="490" y="200" width="392" height="60" as="geometry"/>
        </mxCell>
      </root>
    </mxGraphModel>
  </diagram>
  <diagram id="da84HiQi0HQQTeIwolBv" name="architecture_runtime">
    <mxGraphModel dx="854" dy="436" grid="1" gridSize="10" guides="1" tooltips="1" connect="1" arrows="1" fold="1" page="1" pageScale="1" pageWidth="827" pageHeight="1169" math="0" shadow="0">
      <root>
        <mxCell id="wnP7rW9ASsIJT6KN7wHe-0"/>
        <mxCell id="wnP7rW9ASsIJT6KN7wHe-1" parent="wnP7rW9ASsIJT6KN7wHe-0"/>
      </root>
    </mxGraphModel>
  </diagram>
  <diagram id="r4SYEzPfcE0Bi7PAbu9j" name="architecture_module">
    <mxGraphModel dx="854" dy="436" grid="1" gridSize="10" guides="1" tooltips="1" connect="1" arrows="1" fold="1" page="1" pageScale="1" pageWidth="827" pageHeight="1169" math="0" shadow="0">
      <root>
        <mxCell id="3W6xnwOk8c6gxAf0KjAx-0"/>
        <mxCell id="3W6xnwOk8c6gxAf0KjAx-1" parent="3W6xnwOk8c6gxAf0KjAx-0"/>
      </root>
    </mxGraphModel>
  </diagram>
  <diagram id="O5wQ0micoAi5HC6E3EO1" name="architecture_allocation">
    <mxGraphModel dx="854" dy="436" grid="1" gridSize="10" guides="1" tooltips="1" connect="1" arrows="1" fold="1" page="1" pageScale="1" pageWidth="827" pageHeight="1169" math="0" shadow="0">
      <root>
        <mxCell id="eT7F3jUpqg4ac0Dayeqq-0"/>
        <mxCell id="eT7F3jUpqg4ac0Dayeqq-1" parent="eT7F3jUpqg4ac0Dayeqq-0"/>
      </root>
    </mxGraphModel>
  </diagram>
  <diagram id="QoQMbWxismy9NCmM0o9r" name="test_unit">
    <mxGraphModel dx="854" dy="436" grid="1" gridSize="10" guides="1" tooltips="1" connect="1" arrows="1" fold="1" page="1" pageScale="1" pageWidth="827" pageHeight="1169" math="0" shadow="0">
      <root>
        <mxCell id="LtshtsSaDm1RfrlYcQWH-0"/>
        <mxCell id="LtshtsSaDm1RfrlYcQWH-1" parent="LtshtsSaDm1RfrlYcQWH-0"/>
      </root>
    </mxGraphModel>
  </diagram>
</mxfile>
